<svg width="802" height="176" viewBox="0 0 802 176" fill="none" xmlns="http://www.w3.org/2000/svg">
<path fill-rule="evenodd" clip-rule="evenodd" d="M88.4024 176C137.226 176 176.804 136.601 176.804 88.0002C176.804 39.3989 137.226 0 88.4024 0C39.5791 0 0 39.3989 0 88.0002C0 136.601 39.5791 176 88.4024 176Z" fill="#B72E2E"/>
<path d="M102.07 137.371C101.383 135.824 100.783 134.248 100.268 132.644C99.7531 130.983 99.353 129.321 99.0669 127.66C96.093 131.097 92.4609 133.876 88.1715 135.996C83.9392 138.115 79.0777 139.175 73.5872 139.175C64.4934 139.175 57.2585 136.712 51.8823 131.785C46.5633 126.8 43.9038 120.04 43.9038 111.504C43.9038 102.795 47.3926 96.0635 54.3702 91.3082C61.3478 86.5529 71.5854 84.1754 85.0831 84.1754H97.8658V75.066C97.8658 70.5973 96.5791 67.1313 94.0053 64.6677C91.4315 62.2041 87.6281 60.9724 82.5953 60.9724C79.7354 60.9724 77.1904 61.3159 74.9598 62.0037C72.7293 62.6337 70.9277 63.4072 69.555 64.3238L67.9251 74.2925H49.0512L49.137 53.6677C53.7125 50.5737 58.9457 47.967 64.8366 45.8472C70.7847 43.7275 77.2476 42.6674 84.2253 42.6674C95.7209 42.6674 105.044 45.5034 112.193 51.1753C119.399 56.7899 123.002 64.8108 123.002 75.238V113.652C123.002 115.084 123.002 116.431 123.002 117.691C123.059 118.951 123.174 120.155 123.346 121.3L130.981 122.332V137.371H102.07ZM80.3648 120.613C84.1393 120.613 87.5709 119.811 90.6593 118.207C93.748 116.545 96.1498 114.483 97.8658 112.019V97.8394H85.0831C79.7642 97.8394 75.7321 99.0998 72.9867 101.621C70.2414 104.084 68.8687 107.063 68.8687 110.558C68.8687 113.709 69.8696 116.173 71.8714 117.949C73.9303 119.725 76.7615 120.613 80.3648 120.613Z" fill="#333333"/>
<path d="M277.033 128.644C276.484 127.406 276.004 126.146 275.592 124.862C275.18 123.533 274.86 122.204 274.631 120.875C272.252 123.625 269.346 125.848 265.915 127.544C262.529 129.239 258.64 130.087 254.247 130.087C246.972 130.087 241.184 128.116 236.883 124.175C232.628 120.187 230.5 114.779 230.5 107.95C230.5 100.983 233.292 95.5975 238.874 91.7936C244.456 87.9893 252.646 86.0873 263.444 86.0873H273.67V78.7996C273.67 75.2249 272.641 72.4518 270.582 70.4811C268.522 68.5104 265.48 67.525 261.454 67.525C259.166 67.525 257.13 67.7997 255.345 68.3499C253.561 68.8538 252.12 69.4728 251.021 70.206L249.717 78.181H234.618L234.687 61.6811C238.347 59.2061 242.534 57.1207 247.247 55.4247C252.005 53.729 257.175 52.8812 262.758 52.8812C271.954 52.8812 279.412 55.15 285.132 59.6871C290.897 64.1788 293.779 70.5957 293.779 78.9372V109.669C293.779 110.814 293.779 111.891 293.779 112.9C293.825 113.908 293.917 114.871 294.054 115.787L300.162 116.612V128.644H277.033ZM259.669 115.237C262.689 115.237 265.434 114.596 267.905 113.312C270.376 111.983 272.297 110.333 273.67 108.362V97.0185H263.444C259.189 97.0185 255.963 98.0268 253.767 100.044C251.57 102.014 250.472 104.398 250.472 107.193C250.472 109.714 251.273 111.685 252.875 113.106C254.522 114.527 256.787 115.237 259.669 115.237ZM305.515 66.3562V54.2559H334.615L335.576 62.9187C337.773 59.71 340.403 57.2353 343.469 55.4934C346.534 53.752 350.103 52.8812 354.175 52.8812C363.372 52.8812 370.51 56.4788 375.589 63.6748C380.667 70.8708 383.207 80.3352 383.207 92.0687V93.5122C383.207 104.512 380.667 113.358 375.589 120.05C370.51 126.742 363.418 130.087 354.313 130.087C350.423 130.087 346.969 129.377 343.949 127.956C340.93 126.489 338.344 124.358 336.194 121.562V143.081L345.871 145.143V157.243H306.545V145.143L316.222 143.081V68.4187L305.515 66.3562ZM363.166 92.0687C363.166 85.0561 361.999 79.3727 359.666 75.0186C357.332 70.6645 353.764 68.4874 348.96 68.4874C345.939 68.4874 343.355 69.106 341.204 70.3435C339.099 71.5811 337.429 73.3455 336.194 75.6372V108.225C337.429 110.333 339.099 111.937 341.204 113.037C343.355 114.137 345.985 114.687 349.097 114.687C353.947 114.687 357.493 112.785 359.735 108.981C362.022 105.177 363.166 100.021 363.166 93.5122V92.0687ZM427.68 130.087C416.974 130.087 408.418 126.65 402.012 119.775C395.606 112.9 392.404 104.169 392.404 93.5809V90.8312C392.404 79.7854 395.423 70.6874 401.463 63.5373C407.548 56.3871 415.693 52.8354 425.896 52.8812C435.916 52.8812 443.695 55.9061 449.231 61.9558C454.767 68.006 457.535 76.1874 457.535 86.5V97.4311H413.199L413.062 97.8434C413.428 102.748 415.052 106.781 417.935 109.944C420.863 113.106 424.821 114.687 429.808 114.687C434.246 114.687 437.929 114.252 440.858 113.381C443.786 112.464 446.989 111.044 450.466 109.118L455.888 121.493C452.823 123.923 448.842 125.962 443.946 127.612C439.096 129.262 433.674 130.087 427.68 130.087ZM425.896 68.3499C422.19 68.3499 419.262 69.7708 417.111 72.6123C414.961 75.4538 413.634 79.1893 413.13 83.8186L413.336 84.1624H437.906V82.3747C437.906 78.1123 436.9 74.7206 434.887 72.1997C432.919 69.6333 429.922 68.3499 425.896 68.3499ZM465.565 66.3562V54.2559H494.665L495.626 62.9187C497.822 59.71 500.453 57.2353 503.519 55.4934C506.584 53.752 510.153 52.8812 514.225 52.8812C523.422 52.8812 530.56 56.4788 535.639 63.6748C540.717 70.8708 543.257 80.3352 543.257 92.0687V93.5122C543.257 104.512 540.717 113.358 535.639 120.05C530.56 126.742 523.468 130.087 514.363 130.087C510.473 130.087 507.019 129.377 503.999 127.956C500.979 126.489 498.394 124.358 496.244 121.562V143.081L505.921 145.143V157.243H466.595V145.143L476.272 143.081V68.4187L465.565 66.3562ZM523.216 92.0687C523.216 85.0561 522.049 79.3727 519.716 75.0186C517.382 70.6645 513.813 68.4874 509.009 68.4874C505.989 68.4874 503.405 69.106 501.254 70.3435C499.149 71.5811 497.479 73.3455 496.244 75.6372V108.225C497.479 110.333 499.149 111.937 501.254 113.037C503.405 114.137 506.035 114.687 509.147 114.687C513.997 114.687 517.543 112.785 519.785 108.981C522.072 105.177 523.216 100.021 523.216 93.5122V92.0687ZM587.73 130.087C577.024 130.087 568.468 126.65 562.062 119.775C555.656 112.9 552.453 104.169 552.453 93.5809V90.8312C552.453 79.7854 555.473 70.6874 561.513 63.5373C567.598 56.3871 575.743 52.8354 585.946 52.8812C595.966 52.8812 603.744 55.9061 609.281 61.9558C614.817 68.006 617.585 76.1874 617.585 86.5V97.4311H573.249L573.112 97.8434C573.478 102.748 575.102 106.781 577.985 109.944C580.913 113.106 584.871 114.687 589.858 114.687C594.296 114.687 597.979 114.252 600.908 113.381C603.836 112.464 607.039 111.044 610.516 109.118L615.938 121.493C612.873 123.923 608.892 125.962 603.996 127.612C599.146 129.262 593.724 130.087 587.73 130.087ZM585.946 68.3499C582.24 68.3499 579.312 69.7708 577.161 72.6123C575.011 75.4538 573.684 79.1893 573.18 83.8186L573.386 84.1624H597.956V82.3747C597.956 78.1123 596.95 74.7206 594.937 72.1997C592.969 69.6333 589.972 68.3499 585.946 68.3499ZM628.635 116.612L638.243 114.55V68.4187L627.605 66.3562V54.2559H656.91L657.802 65.1187C659.542 61.2685 661.783 58.2665 664.53 56.1124C667.276 53.9583 670.456 52.8812 674.071 52.8812C675.12 52.8812 676.221 52.9725 677.365 53.1559C678.553 53.2935 679.535 53.4769 680.317 53.7061L678.186 71.9937L669.951 71.7874C667.023 71.7874 664.597 72.3601 662.675 73.506C660.754 74.6518 659.29 76.2791 658.284 78.3874V114.55L667.891 116.612V128.644H628.635V116.612ZM685.667 116.612L695.346 114.55V68.4187L684.637 66.3562V54.2559H715.387V114.55L724.995 116.612V128.644H685.667V116.612ZM715.387 36.4497H695.346V21.3936H715.387V36.4497ZM778.87 128.644C778.321 127.406 777.84 126.146 777.43 124.862C777.019 123.533 776.696 122.204 776.467 120.875C774.088 123.625 771.184 125.848 767.751 127.544C764.365 129.239 760.479 130.087 756.083 130.087C748.811 130.087 743.023 128.116 738.722 124.175C734.464 120.187 732.338 114.779 732.338 107.95C732.338 100.983 735.127 95.5975 740.71 91.7936C746.294 87.9893 754.485 86.0873 765.281 86.0873H775.508V78.7996C775.508 75.2249 774.478 72.4518 772.419 70.4811C770.359 68.5104 767.317 67.525 763.292 67.525C761.004 67.525 758.968 67.7997 757.184 68.3499C755.397 68.8538 753.956 69.4728 752.859 70.206L751.553 78.181H736.457L736.524 61.6811C740.186 59.2061 744.372 57.1207 749.083 55.4247C753.842 53.729 759.015 52.8812 764.594 52.8812C773.792 52.8812 781.249 55.15 786.971 59.6871C792.735 64.1788 795.616 70.5957 795.616 78.9372V109.669C795.616 110.814 795.616 111.891 795.616 112.9C795.663 113.908 795.754 114.871 795.892 115.787L802 116.612V128.644H778.87ZM761.509 115.237C764.527 115.237 767.273 114.596 769.743 113.312C772.213 111.983 774.135 110.333 775.508 108.362V97.0185H765.281C761.027 97.0185 757.8 98.0268 755.606 100.044C753.408 102.014 752.311 104.398 752.311 107.193C752.311 109.714 753.112 111.685 754.714 113.106C756.359 114.527 758.624 115.237 761.509 115.237Z" fill="white"/>
</svg>
