<svg width="653" height="136" viewBox="0 0 653 136" fill="none" xmlns="http://www.w3.org/2000/svg">
<path fill-rule="evenodd" clip-rule="evenodd" d="M71.9785 136C111.731 136 143.957 105.555 143.957 68.0002C143.957 30.4446 111.731 0 71.9785 0C32.2259 0 0 30.4446 0 68.0002C0 105.555 32.2259 136 71.9785 136Z" fill="#B72E2E"/>
<path d="M83.1065 106.15C82.5475 104.955 82.0585 103.737 81.6396 102.498C81.2203 101.214 80.8946 99.9302 80.6617 98.6462C78.2402 101.302 75.283 103.45 71.7904 105.088C68.3445 106.726 64.3861 107.545 59.9157 107.545C52.5114 107.545 46.6206 105.641 42.2433 101.834C37.9125 97.9822 35.7471 92.7582 35.7471 86.162C35.7471 79.4326 38.5877 74.2309 44.269 70.5563C49.9502 66.8818 58.2858 65.0447 69.2759 65.0447H79.6837V58.0056C79.6837 54.5524 78.636 51.8742 76.5404 49.9705C74.4448 48.0668 71.348 47.1151 67.2503 47.1151C64.9217 47.1151 62.8495 47.3805 61.0333 47.9119C59.2172 48.3988 57.7503 48.9965 56.6327 49.7047L55.3055 57.4078H39.9382L40.008 41.4705C43.7334 39.0797 47.9944 37.0654 52.7908 35.4274C57.6339 33.7894 62.8961 32.9703 68.5774 32.9703C77.9373 32.9703 85.5279 35.1617 91.349 39.5445C97.2164 43.8831 100.15 50.081 100.15 58.1384V87.8219C100.15 88.9288 100.15 89.9691 100.15 90.9431C100.197 91.9171 100.29 92.8468 100.43 93.7322L106.646 94.529V106.15H83.1065ZM65.4341 93.2008C68.5074 93.2008 71.3015 92.5811 73.816 91.3416C76.3309 90.0576 78.2865 88.4639 79.6837 86.5602V75.6032H69.2759C64.9451 75.6032 61.6621 76.5772 59.4268 78.5251C57.1915 80.4289 56.0739 82.7308 56.0739 85.4314C56.0739 87.8662 56.8888 89.7699 58.5187 91.1422C60.1951 92.5148 62.5003 93.2008 65.4341 93.2008Z" fill="#333333"/>
<path d="M225.564 99.4064C225.117 98.4501 224.726 97.4761 224.391 96.4844C224.056 95.4575 223.795 94.4304 223.608 93.4033C221.671 95.5281 219.306 97.2458 216.512 98.5564C213.755 99.8666 210.588 100.522 207.012 100.522C201.088 100.522 196.376 98.9989 192.874 95.9532C189.409 92.8721 187.677 88.6927 187.677 83.4156C187.677 78.0325 189.949 73.8708 194.494 70.9314C199.039 67.9917 205.708 66.522 214.5 66.522H222.826V60.8906C222.826 58.1283 221.988 55.9855 220.311 54.4626C218.635 52.9398 216.157 52.1784 212.879 52.1784C211.016 52.1784 209.359 52.3907 207.906 52.8158C206.453 53.2052 205.279 53.6835 204.385 54.2501L203.323 60.4126H191.03L191.085 47.6627C194.066 45.7501 197.475 44.1387 201.312 42.8281C205.186 41.5179 209.396 40.8627 213.941 40.8627C221.429 40.8627 227.501 42.6159 232.158 46.1218C236.852 49.5927 239.199 54.5512 239.199 60.9969V84.7439C239.199 85.6293 239.199 86.4616 239.199 87.2407C239.237 88.0199 239.311 88.7636 239.423 89.4718L244.396 90.1096V99.4064H225.564ZM211.426 89.047C213.885 89.047 216.12 88.5513 218.132 87.5596C220.144 86.5324 221.708 85.2573 222.826 83.7345V74.9688H214.5C211.035 74.9688 208.409 75.7479 206.62 77.3065C204.832 78.8294 203.938 80.6711 203.938 82.8313C203.938 84.7793 204.59 86.3022 205.894 87.4002C207.235 88.4982 209.079 89.047 211.426 89.047ZM248.755 51.2752V41.925H272.448L273.231 48.619C275.019 46.1395 277.161 44.2273 279.657 42.8813C282.153 41.5356 285.059 40.8627 288.375 40.8627C295.863 40.8627 301.674 43.6427 305.81 49.2032C309.945 54.7638 312.012 62.0772 312.012 71.144V72.2594C312.012 80.7596 309.945 87.595 305.81 92.7658C301.674 97.9367 295.9 100.522 288.486 100.522C285.32 100.522 282.507 99.9729 280.048 98.8752C277.59 97.7418 275.485 96.095 273.734 93.9344V110.563L281.613 112.156V121.506H249.593V112.156L257.472 110.563V52.8689L248.755 51.2752ZM295.695 71.144C295.695 65.7251 294.745 61.3335 292.845 57.9689C290.945 54.6044 288.039 52.9221 284.128 52.9221C281.669 52.9221 279.564 53.4001 277.813 54.3564C276.099 55.3126 274.74 56.6761 273.734 58.4469V83.6282C274.74 85.2573 276.099 86.497 277.813 87.347C279.564 88.197 281.706 88.6219 284.24 88.6219C288.188 88.6219 291.076 87.1521 292.901 84.2127C294.764 81.273 295.695 77.2888 295.695 72.2594V71.144ZM348.223 100.522C339.506 100.522 332.54 97.8658 327.324 92.5533C322.108 87.2407 319.501 80.4939 319.501 72.3125V70.1877C319.501 61.6523 321.959 54.6221 326.877 49.097C331.832 43.5718 338.463 40.8273 346.771 40.8627C354.929 40.8627 361.262 43.2001 365.77 47.875C370.278 52.5501 372.532 58.8721 372.532 66.8409V75.2877H336.432L336.321 75.6062C336.619 79.3959 337.941 82.5125 340.288 84.9565C342.672 87.4002 345.895 88.6219 349.956 88.6219C353.569 88.6219 356.568 88.2856 358.953 87.6127C361.337 86.9041 363.945 85.8065 366.776 84.3187L371.191 93.8813C368.695 95.7584 365.453 97.3344 361.467 98.6095C357.518 99.8844 353.104 100.522 348.223 100.522ZM346.771 52.8158C343.753 52.8158 341.369 53.9138 339.618 56.1095C337.867 58.3052 336.786 61.1917 336.377 64.7689L336.544 65.0346H356.55V63.6532C356.55 60.3595 355.73 57.7386 354.091 55.7906C352.489 53.8075 350.049 52.8158 346.771 52.8158ZM379.07 51.2752V41.925H402.763L403.546 48.619C405.334 46.1395 407.476 44.2273 409.972 42.8813C412.468 41.5356 415.374 40.8627 418.69 40.8627C426.178 40.8627 431.989 43.6427 436.125 49.2032C440.26 54.7638 442.327 62.0772 442.327 71.144V72.2594C442.327 80.7596 440.26 87.595 436.125 92.7658C431.989 97.9367 426.215 100.522 418.801 100.522C415.635 100.522 412.822 99.9729 410.363 98.8752C407.905 97.7418 405.8 96.095 404.049 93.9344V110.563L411.928 112.156V121.506H379.908V112.156L387.787 110.563V52.8689L379.07 51.2752ZM426.01 71.144C426.01 65.7251 425.06 61.3335 423.16 57.9689C421.26 54.6044 418.354 52.9221 414.443 52.9221C411.984 52.9221 409.879 53.4001 408.128 54.3564C406.414 55.3126 405.055 56.6761 404.049 58.4469V83.6282C405.055 85.2573 406.414 86.497 408.128 87.347C409.879 88.197 412.021 88.6219 414.555 88.6219C418.503 88.6219 421.391 87.1521 423.216 84.2127C425.079 81.273 426.01 77.2888 426.01 72.2594V71.144ZM478.538 100.522C469.821 100.522 462.855 97.8658 457.639 92.5533C452.423 87.2407 449.816 80.4939 449.816 72.3125V70.1877C449.816 61.6523 452.274 54.6221 457.192 49.097C462.147 43.5718 468.778 40.8273 477.086 40.8627C485.244 40.8627 491.577 43.2001 496.085 47.875C500.593 52.5501 502.847 58.8721 502.847 66.8409V75.2877H466.747L466.636 75.6062C466.934 79.3959 468.256 82.5125 470.603 84.9565C472.987 87.4002 476.21 88.6219 480.271 88.6219C483.884 88.6219 486.883 88.2856 489.268 87.6127C491.652 86.9041 494.26 85.8065 497.091 84.3187L501.506 93.8813C499.01 95.7584 495.768 97.3344 491.782 98.6095C487.833 99.8844 483.419 100.522 478.538 100.522ZM477.086 52.8158C474.068 52.8158 471.684 53.9138 469.933 56.1095C468.182 58.3052 467.101 61.1917 466.692 64.7689L466.859 65.0346H486.865V63.6532C486.865 60.3595 486.045 57.7386 484.406 55.7906C482.804 53.8075 480.364 52.8158 477.086 52.8158ZM511.844 90.1096L519.667 88.5159V52.8689L511.005 51.2752V41.925H534.866L535.592 50.319C537.009 47.3438 538.834 45.0241 541.07 43.3596C543.306 41.695 545.895 40.8627 548.838 40.8627C549.692 40.8627 550.589 40.9333 551.521 41.075C552.488 41.1813 553.288 41.323 553.924 41.5002L552.189 55.6315L545.484 55.4721C543.1 55.4721 541.124 55.9146 539.56 56.8001C537.995 57.6855 536.803 58.9429 535.984 60.572V88.5159L543.807 90.1096V99.4064H511.844V90.1096ZM558.28 90.1096L566.161 88.5159V52.8689L557.442 51.2752V41.925H582.478V88.5159L590.301 90.1096V99.4064H558.28V90.1096ZM582.478 28.1657H566.161V16.5314H582.478V28.1657ZM634.167 99.4064C633.721 98.4501 633.329 97.4761 632.994 96.4844C632.66 95.4575 632.397 94.4304 632.211 93.4033C630.273 95.5281 627.909 97.2458 625.114 98.5564C622.357 99.8666 619.193 100.522 615.614 100.522C609.693 100.522 604.98 98.9989 601.478 95.9532C598.011 92.8721 596.28 88.6927 596.28 83.4156C596.28 78.0325 598.551 73.8708 603.097 70.9314C607.643 67.9917 614.313 66.522 623.103 66.522H631.43V60.8906C631.43 58.1283 630.591 55.9855 628.914 54.4626C627.237 52.9398 624.76 52.1784 621.483 52.1784C619.62 52.1784 617.962 52.3907 616.51 52.8158C615.055 53.2052 613.882 53.6835 612.989 54.2501L611.926 60.4126H599.634L599.688 47.6627C602.67 45.7501 606.078 44.1387 609.914 42.8281C613.789 41.5179 618.001 40.8627 622.544 40.8627C630.032 40.8627 636.104 42.6159 640.763 46.1218C645.457 49.5927 647.802 54.5512 647.802 60.9969V84.7439C647.802 85.6293 647.802 86.4616 647.802 87.2407C647.84 88.0199 647.914 88.7636 648.027 89.4718L653 90.1096V99.4064H634.167ZM620.031 89.047C622.489 89.047 624.725 88.5513 626.736 87.5596C628.747 86.5324 630.312 85.2573 631.43 83.7345V74.9688H623.103C619.639 74.9688 617.011 75.7479 615.225 77.3065C613.436 78.8294 612.542 80.6711 612.542 82.8313C612.542 84.7793 613.195 86.3022 614.499 87.4002C615.839 88.4982 617.683 89.047 620.031 89.047Z" fill="white"/>
</svg>
